<svg aria-hidden="true" style="position: absolute; width: 0; height: 0; overflow: hidden;" version="1.1"
    xmlns="http://www.w3.org/2000/svg" xmlns:xlink="http://www.w3.org/1999/xlink">
    <defs>
        <symbol id="icon-location-pin" viewBox="0 0 20 20">
            <path
                d="M10 2.009c-2.762 0-5 2.229-5 4.99 0 4.774 5 11 5 11s5-6.227 5-11c0-2.76-2.238-4.99-5-4.99zM10 9.76c-1.492 0-2.7-1.209-2.7-2.7s1.208-2.7 2.7-2.7c1.49 0 2.699 1.209 2.699 2.7s-1.209 2.7-2.699 2.7z">
            </path>
        </symbol>
        <symbol id="icon-mail" viewBox="0 0 20 20">
            <path
                d="M1.574 5.286c0.488 0.262 7.248 3.894 7.5 4.029s0.578 0.199 0.906 0.199c0.328 0 0.654-0.064 0.906-0.199s7.012-3.767 7.5-4.029c0.489-0.263 0.951-1.286 0.054-1.286h-16.919c-0.897 0-0.435 1.023 0.053 1.286zM18.613 7.489c-0.555 0.289-7.387 3.849-7.727 4.027s-0.578 0.199-0.906 0.199-0.566-0.021-0.906-0.199-7.133-3.739-7.688-4.028c-0.39-0.204-0.386 0.035-0.386 0.219s0 7.293 0 7.293c0 0.42 0.566 1 1 1h16c0.434 0 1-0.58 1-1 0 0 0-7.108 0-7.292s0.004-0.423-0.387-0.219z">
            </path>
        </symbol>
        <symbol id="icon-phone" viewBox="0 0 20 20">
            <path
                d="M11.229 11.229c-1.583 1.582-3.417 3.096-4.142 2.371-1.037-1.037-1.677-1.941-3.965-0.102-2.287 1.838-0.53 3.064 0.475 4.068 1.16 1.16 5.484 0.062 9.758-4.211 4.273-4.274 5.368-8.598 4.207-9.758-1.005-1.006-2.225-2.762-4.063-0.475s-0.936 2.927 0.103 3.965c0.722 0.725-0.791 2.559-2.373 4.142z">
            </path>
        </symbol>
        <symbol id="icon-google-scholar" viewBox="0 0 50 50">
            <path
                d="M 25 2 C 12.309534 2 2 12.309534 2 25 C 2 37.690466 12.309534 48 25 48 C 37.690466 48 48 37.690466 48 25 C 48 12.309534 37.690466 2 25 2 z M 25 4 C 36.609534 4 46 13.390466 46 25 C 46 36.609534 36.609534 46 25 46 C 13.390466 46 4 36.609534 4 25 C 4 13.390466 13.390466 4 25 4 z M 21 11 L 11 20 L 17.78125 20 C 17.80125 22.847 19.967531 25.730469 23.769531 25.730469 C 24.129531 25.730469 24.529688 25.690391 24.929688 25.650391 C 24.749688 26.100391 24.560547 26.470078 24.560547 27.080078 C 24.560547 28.230078 25.140391 28.920078 25.650391 29.580078 C 24.020391 29.690078 20.989766 29.879531 18.759766 31.269531 C 16.629766 32.559531 15.980469 34.43 15.980469 35.75 C 15.980469 38.47 18.500469 41 23.730469 41 C 29.930469 41 33.220703 37.510547 33.220703 34.060547 C 33.220703 31.530547 31.779453 30.279922 30.189453 28.919922 L 28.900391 27.890625 C 28.500391 27.570625 27.949219 27.120312 27.949219 26.320312 C 27.949219 25.510313 28.500703 24.989766 28.970703 24.509766 C 30.480703 23.309766 32 21.960234 32 19.240234 C 32 18.197234 31.756203 17.348391 31.408203 16.650391 L 35 13.570312 L 35 17.277344 C 34.405 17.623344 34 18.261 34 19 L 34 25 C 34 26.104 34.896 27 36 27 C 37.104 27 38 26.104 38 25 L 38 19 C 38 18.262 37.595 17.624344 37 17.277344 L 37 12 C 37 11.957 36.980609 11.920906 36.974609 11.878906 L 38 11 L 21 11 z M 24.269531 14.240234 C 27.269531 14.240234 28.820312 18.35 28.820312 21 C 28.820312 21.65 28.739922 22.819922 27.919922 23.669922 C 27.339922 24.259922 26.370938 24.699219 25.460938 24.699219 C 22.370938 24.699219 20.949219 20.620156 20.949219 18.160156 C 20.949219 17.210156 21.14 16.220938 21.75 15.460938 C 22.33 14.710938 23.339531 14.240234 24.269531 14.240234 z M 26.039062 30.609375 C 26.409063 30.609375 26.590859 30.610391 26.880859 30.650391 C 29.620859 32.630391 30.800781 33.620234 30.800781 35.490234 C 30.800781 37.760234 28.97 39.460938 25.5 39.460938 C 21.64 39.460938 19.160156 37.590469 19.160156 34.980469 C 19.160156 32.370469 21.459766 31.499219 22.259766 31.199219 C 23.769766 30.679219 25.719062 30.609375 26.039062 30.609375 z">
            </path>
        </symbol>
        <symbol id="icon-researchgate" viewBox="0 0 24 24">
            <path d="M9.281 13.938c-1.033 0-1.914-.268-1.929-.272a.5.5 0 1 1 .297-.955c.543.169 2.302.497 3.22-.179.424-.314.631-.815.631-1.532 0-.611-.178-1.041-.545-1.314-.885-.663-2.692-.329-3.313-.144a.501.501 0 0 1-.284-.959c.11-.034 2.732-.792 4.195.301.629.469.947 1.181.947 2.116 0 1.043-.35 1.829-1.039 2.336-.63.465-1.444.602-2.18.602z"></path><path d="M7.5 18a.5.5 0 0 1-.5-.5V9.062a.5.5 0 0 1 1 0V17.5a.5.5 0 0 1-.5.5z"></path><path d="M13.5 18.023c-1.647 0-2.233-.846-3.65-2.89-1.005-1.448-2.191-1.215-2.241-1.205a.508.508 0 0 1-.594-.38.498.498 0 0 1 .37-.595c.077-.02 1.88-.419 3.276 1.595 1.417 2.045 1.753 2.475 2.839 2.475a.5.5 0 0 1 0 1zM7.125 9.58c-.25 0-.511-.027-.764-.1a.5.5 0 1 1 .278-.961c.62.18 1.454-.095 1.462-.098a.504.504 0 0 1 .634.312.501.501 0 0 1-.313.636 4.39 4.39 0 0 1-1.297.211zM8.5 18h-2a.5.5 0 0 1 0-1h2a.5.5 0 0 1 0 1zm5-8.5A.5.5 0 0 1 13 9V7c0-1.103.897-2 2-2s2 .897 2 2a.5.5 0 0 1-1 0 1.001 1.001 0 0 0-2 0v2a.5.5 0 0 1-.5.5z"></path><path d="M15 11c-1.103 0-2-.897-2-2a.5.5 0 0 1 1 0 1.001 1.001 0 0 0 2 .008h-.5a.5.5 0 0 1 0-1h.979a.5.5 0 0 1 .5.479l.021.492A2.007 2.007 0 0 1 15 11z"></path><path d="M23.5 24H.5a.5.5 0 0 1-.5-.5V.5A.5.5 0 0 1 .5 0h23a.5.5 0 0 1 .5.5v23a.5.5 0 0 1-.5.5zM1 23h22V1H1v22z"></path>
        </symbol>
        <symbol id="icon-scopus" viewBox="0 0 24 24">
            <path d="M24 19.059l-.14-1.777c-1.426.772-2.945 1.076-4.465 1.076-3.319 0-5.96-2.782-5.96-6.475 0-3.903 2.595-6.31 5.633-6.31 1.917 0 3.39.303 4.792 1.075L24 4.895c-1.286-.608-2.337-.889-4.698-.889-4.534 0-7.97 3.53-7.97 8.017 0 5.12 4.09 7.924 7.9 7.924 1.916 0 3.506-.257 4.768-.888zm-14.954-3.46c0-2.22-1.964-3.225-3.857-4.347C3.716 10.364 2.15 9.756 2.15 8.12c0-1.215.889-2.548 2.642-2.548 1.519 0 2.57.234 3.903 1.029l.117-1.847c-1.239-.514-2.127-.748-4.137-.748C1.8 4.006.047 5.876.047 8.26c0 2.384 2.103 3.413 4.02 4.581 1.426.865 2.922 1.45 2.922 2.992 0 1.496-1.333 2.571-2.922 2.571-1.566 0-2.594-.35-3.786-1.075L0 19.176c1.215.56 2.454.818 4.16.818 2.385 0 4.885-1.473 4.885-4.395z"/>
        </symbol>
        <symbol id="icon-profile" viewBox="0 0 32 32">
            <path d="M18 22.082v-1.649c2.203-1.241 4-4.337 4-7.432 0-4.971 0-9-6-9s-6 4.029-6 9c0 3.096 1.797 6.191 4 7.432v1.649c-6.784 0.555-12 3.888-12 7.918h28c0-4.030-5.216-7.364-12-7.918z"></path>
        </symbol>
    </defs>
</svg>